<svg width="20" height="21" viewBox="0 0 20 21" fill="none" xmlns="http://www.w3.org/2000/svg">
<path fill-rule="evenodd" clip-rule="evenodd" d="M10.359 2.0978C10.1373 1.9674 9.86241 1.9674 9.64074 2.0978L3.61989 5.63944L1.84378 6.70511C1.50832 6.90638 1.39955 7.34148 1.60082 7.67693C1.80209 8.01239 2.23719 8.12116 2.57265 7.91989L3.27071 7.50105V17.0521C3.27071 17.295 3.39575 17.5213 3.60105 17.6511L3.60304 17.6524L3.60632 17.6544L3.6151 17.6598C3.62192 17.664 3.6307 17.6693 3.64144 17.6757C3.66293 17.6884 3.69226 17.7053 3.72946 17.7258C3.80387 17.7668 3.90978 17.8221 4.04748 17.8868C4.32291 18.0163 4.72527 18.1833 5.25667 18.3483C6.32036 18.6787 7.89634 19 9.99988 19C12.1034 19 13.6794 18.6787 14.7431 18.3483C15.2745 18.1833 15.6768 18.0163 15.9523 17.8868C16.09 17.8221 16.1959 17.7668 16.2703 17.7258C16.3075 17.7053 16.3368 17.6884 16.3583 17.6757L16.3715 17.6678L16.3847 17.6598L16.3934 17.6544L16.3967 17.6524L16.3993 17.6508C16.6046 17.521 16.729 17.295 16.729 17.0521V7.50105L17.4271 7.91989C17.7626 8.12116 18.1977 8.01239 18.3989 7.67693C18.6002 7.34148 18.4914 6.90638 18.156 6.70511L16.3852 5.64259L10.359 2.0978ZM3.97904 17.0521L3.60105 17.6511C3.60105 17.6511 3.60048 17.6508 3.97904 17.0521ZM9.29161 9.4375C8.50921 9.4375 7.87494 10.0718 7.87494 10.8542V11.9167C7.87494 12.6991 8.50921 13.3333 9.29161 13.3333H10.7083C11.4907 13.3333 12.1249 12.6991 12.1249 11.9167V10.8542C12.1249 10.0718 11.4907 9.4375 10.7083 9.4375H9.29161Z" fill="#98A2B2"/>
</svg>
